<svg width="40" height="40" viewBox="0 0 40 40" fill="none" xmlns="http://www.w3.org/2000/svg">
<path d="M20 2.5C10.335 2.5 2.50002 10.335 2.50002 20C2.50002 23.188 3.35102 26.173 4.83802 28.745C5.00802 29.038 5.05102 29.387 4.95802 29.713L2.84202 37.155L10.282 35.039C10.4432 34.9931 10.6119 34.9801 10.7782 35.0007C10.9445 35.0213 11.105 35.0751 11.25 35.159C13.9091 36.6975 16.9279 37.5051 20 37.5C29.665 37.5 37.5 29.665 37.5 20C37.5 10.335 29.665 2.5 20 2.5ZM2.1379e-05 20C2.1379e-05 8.954 8.95402 0 20 0C31.046 0 40 8.954 40 20C40 31.046 31.046 40 20 40C16.6702 40.0048 13.3923 39.1749 10.466 37.586L2.23102 39.928C0.912021 40.303 -0.305979 39.084 0.0690211 37.766L2.41102 29.528C0.824049 26.6033 -0.00485356 23.3275 2.1379e-05 20ZM12 16.25C12 15.56 12.56 15 13.25 15H26.75C26.9142 15 27.0767 15.0323 27.2284 15.0951C27.38 15.158 27.5178 15.25 27.6339 15.3661C27.75 15.4822 27.8421 15.62 27.9049 15.7716C27.9677 15.9233 28 16.0858 28 16.25C28 16.4142 27.9677 16.5767 27.9049 16.7284C27.8421 16.88 27.75 17.0178 27.6339 17.1339C27.5178 17.25 27.38 17.342 27.2284 17.4049C27.0767 17.4677 26.9142 17.5 26.75 17.5H13.25C12.56 17.5 12 16.94 12 16.25ZM13.25 22.5C12.9185 22.5 12.6006 22.6317 12.3661 22.8661C12.1317 23.1005 12 23.4185 12 23.75C12 24.0815 12.1317 24.3995 12.3661 24.6339C12.6006 24.8683 12.9185 25 13.25 25H22.75C23.0815 25 23.3995 24.8683 23.6339 24.6339C23.8683 24.3995 24 24.0815 24 23.75C24 23.4185 23.8683 23.1005 23.6339 22.8661C23.3995 22.6317 23.0815 22.5 22.75 22.5H13.25Z" fill="#548DFC"/>
</svg>
