<svg width="189" height="186" viewBox="0 0 189 186" fill="none" xmlns="http://www.w3.org/2000/svg">
<g clip-path="url(#clip0_260_48)">
<path d="M82.782 96.565C80.7466 98.5674 79.3064 101.084 78.6186 103.841C77.9308 106.598 78.0217 109.489 78.8816 112.198C79.7414 114.908 81.3371 117.331 83.4944 119.204C85.6518 121.078 88.2879 122.329 91.1149 122.821C93.942 123.313 96.8514 123.027 99.5256 121.995C102.2 120.963 104.536 119.224 106.279 116.968C108.022 114.712 109.105 112.025 109.41 109.202C109.715 106.378 109.23 103.526 108.008 100.957L138.927 70.9383L131.563 63.6533L100.696 93.6717C97.776 92.2549 94.4825 91.7723 91.2725 92.2907C88.0625 92.8092 85.0951 94.303 82.782 96.565Z" fill="#548DFC"/>
<path d="M170.16 67.1665C166.701 68.4246 163.078 69.19 159.401 69.4399C165.36 79.5734 168.814 90.9567 169.481 102.662H151.044V112.995H169.481C168.265 127.796 162.609 141.901 153.238 153.502H34.7843C25.4129 141.901 19.7569 127.796 18.5414 112.995H36.5601V102.662H18.5414C19.4613 86.3278 25.7938 70.7486 36.5601 58.3315L49.356 70.9899L56.7202 63.7049L44.0287 50.9949C56.4761 40.1115 72.2138 33.6079 88.7884 32.4982V50.5815H99.234V32.5499C105.596 32.967 111.879 34.1823 117.932 36.1665C117.676 34.4554 117.537 32.7294 117.514 30.9999C117.532 29.1138 117.689 27.2316 117.984 25.3682C100.215 20.255 81.2531 20.9399 63.908 27.3212C46.5629 33.7026 31.7569 45.4411 21.6832 60.7979C11.6095 76.1546 6.80394 94.3128 7.97835 112.583C9.15276 130.853 16.2447 148.262 28.2036 162.233L29.7704 164.042H158.252L159.819 162.233C170.957 149.272 177.906 133.302 179.769 116.39C181.631 99.4785 178.32 82.403 170.264 67.3732L170.16 67.1665Z" fill="#548DFC"/>
<path d="M156.684 56.8332C171.107 56.8332 182.799 45.2672 182.799 30.9998C182.799 16.7325 171.107 5.1665 156.684 5.1665C142.262 5.1665 130.57 16.7325 130.57 30.9998C130.57 45.2672 142.262 56.8332 156.684 56.8332Z" fill="#548DFC"/>
</g>
<defs>
<clipPath id="clip0_260_48">
<rect width="188.022" height="186" fill="white"/>
</clipPath>
</defs>
</svg>
