<svg width="27" height="20" viewBox="0 0 27 20" fill="none" xmlns="http://www.w3.org/2000/svg">
<path d="M25.3125 20C25.3125 20 27 20 27 18.3333C27 16.6667 25.3125 11.6667 18.5625 11.6667C11.8125 11.6667 10.125 16.6667 10.125 18.3333C10.125 20 11.8125 20 11.8125 20H25.3125ZM11.8496 18.3333C11.8372 18.3316 11.8248 18.3294 11.8125 18.3267C11.8142 17.8867 12.0943 16.61 13.095 15.46C14.0265 14.3817 15.6634 13.3333 18.5625 13.3333C21.4599 13.3333 23.0968 14.3833 24.03 15.46C25.0307 16.61 25.3091 17.8883 25.3125 18.3267L25.299 18.33C25.2912 18.3313 25.2833 18.3324 25.2754 18.3333H11.8496ZM18.5625 8.33333C19.4576 8.33333 20.316 7.98214 20.949 7.35702C21.5819 6.7319 21.9375 5.88405 21.9375 5C21.9375 4.11594 21.5819 3.2681 20.949 2.64298C20.316 2.01786 19.4576 1.66667 18.5625 1.66667C17.6674 1.66667 16.809 2.01786 16.176 2.64298C15.5431 3.2681 15.1875 4.11594 15.1875 5C15.1875 5.88405 15.5431 6.7319 16.176 7.35702C16.809 7.98214 17.6674 8.33333 18.5625 8.33333ZM23.625 5C23.625 5.65661 23.4941 6.30679 23.2396 6.91342C22.9852 7.52004 22.6123 8.07124 22.1422 8.53553C21.6721 8.99983 21.114 9.36812 20.4998 9.6194C19.8856 9.87067 19.2273 10 18.5625 10C17.8977 10 17.2394 9.87067 16.6252 9.6194C16.011 9.36812 15.4529 8.99983 14.9828 8.53553C14.5127 8.07124 14.1398 7.52004 13.8854 6.91342C13.6309 6.30679 13.5 5.65661 13.5 5C13.5 3.67392 14.0334 2.40215 14.9828 1.46447C15.9322 0.526784 17.2198 0 18.5625 0C19.9052 0 21.1928 0.526784 22.1422 1.46447C23.0916 2.40215 23.625 3.67392 23.625 5ZM11.7045 12.1333C11.0295 11.9234 10.3336 11.7854 9.62887 11.7217C9.23287 11.6845 8.83529 11.6661 8.4375 11.6667C1.6875 11.6667 0 16.6667 0 18.3333C0 19.445 0.561938 20 1.6875 20H8.802C8.55184 19.4797 8.42708 18.9092 8.4375 18.3333C8.4375 16.65 9.07369 14.93 10.2769 13.4933C10.6869 13.0033 11.1645 12.545 11.7045 12.1333ZM8.3025 13.3333C7.30376 14.8155 6.76424 16.553 6.75 18.3333H1.6875C1.6875 17.9 1.96425 16.6167 2.97 15.46C3.88969 14.4 5.48775 13.3667 8.3025 13.335V13.3333ZM2.53125 5.83333C2.53125 4.50725 3.06462 3.23548 4.01402 2.2978C4.96342 1.36012 6.25109 0.833333 7.59375 0.833333C8.93641 0.833333 10.2241 1.36012 11.1735 2.2978C12.1229 3.23548 12.6562 4.50725 12.6562 5.83333C12.6562 7.15942 12.1229 8.43118 11.1735 9.36887C10.2241 10.3065 8.93641 10.8333 7.59375 10.8333C6.25109 10.8333 4.96342 10.3065 4.01402 9.36887C3.06462 8.43118 2.53125 7.15942 2.53125 5.83333ZM7.59375 2.5C6.69864 2.5 5.8402 2.85119 5.20726 3.47631C4.57433 4.10143 4.21875 4.94928 4.21875 5.83333C4.21875 6.71739 4.57433 7.56523 5.20726 8.19036C5.8402 8.81548 6.69864 9.16667 7.59375 9.16667C8.48886 9.16667 9.3473 8.81548 9.98024 8.19036C10.6132 7.56523 10.9687 6.71739 10.9688 5.83333C10.9687 4.94928 10.6132 4.10143 9.98024 3.47631C9.3473 2.85119 8.48886 2.5 7.59375 2.5Z" fill="#548DFC"/>
</svg>
