<svg width="23" height="20" viewBox="0 0 23 20" fill="none" xmlns="http://www.w3.org/2000/svg">
<path d="M11.2241 17.8498C11.0441 18.0298 10.7241 18.0598 10.5141 17.8498C10.4204 17.7554 10.3678 17.6278 10.3678 17.4948C10.3678 17.3618 10.4204 17.2342 10.5141 17.1398L13.9041 13.7498L12.4941 12.3398L9.10407 15.7298C8.91407 15.9298 8.59407 15.9198 8.39407 15.7298C8.30039 15.6354 8.24783 15.5078 8.24783 15.3748C8.24783 15.2418 8.30039 15.1142 8.39407 15.0198L11.7841 11.6298L10.3741 10.2198L6.98407 13.6098C6.80407 13.7898 6.48407 13.8198 6.27407 13.6098C6.18251 13.5143 6.1314 13.3871 6.1314 13.2548C6.1314 13.1225 6.18251 12.9953 6.27407 12.8998L9.66407 9.50984L8.24407 8.09984L4.85407 11.4898C4.67407 11.6698 4.35407 11.6998 4.14407 11.4898C4.05251 11.3943 4.0014 11.2671 4.0014 11.1348C4.0014 11.0025 4.05251 10.8753 4.14407 10.7798L8.52407 6.39984L10.3941 8.25984C11.3441 9.20984 12.9841 9.19984 13.9341 8.25984C14.9141 7.27984 14.9141 5.69984 13.9341 4.71984L12.0741 2.85984L12.3541 2.57984C13.1341 1.79984 14.4041 1.79984 15.1841 2.57984L19.4241 6.81984C20.2041 7.59984 20.2041 8.86984 19.4241 9.64984L11.2241 17.8498ZM20.8341 11.0698C21.5832 10.3185 22.0039 9.30083 22.0039 8.23984C22.0039 7.17885 21.5832 6.16115 20.8341 5.40984L16.5941 1.16984C15.8428 0.420687 14.8251 0 13.7641 0C12.7031 0 11.6854 0.420687 10.9341 1.16984L10.6541 1.44984L10.3741 1.16984C9.62276 0.420687 8.60506 0 7.54407 0C6.48308 0 5.46538 0.420687 4.71407 1.16984L1.17407 4.70984C0.497569 5.38403 0.0852012 6.27842 0.0118093 7.23068C-0.0615825 8.18293 0.208866 9.12995 0.77407 9.89984L2.22407 8.44984C2.03076 8.0724 1.96243 7.64329 2.02893 7.22447C2.09544 6.80566 2.29335 6.41882 2.59407 6.11984L6.13407 2.57984C6.91407 1.79984 8.18407 1.79984 8.96407 2.57984L12.5241 6.13984C12.7041 6.31984 12.7341 6.63984 12.5241 6.84984C12.3141 7.05984 11.9941 7.02984 11.8141 6.84984L8.52407 3.56984L2.72407 9.35984C1.74407 10.3298 1.74407 11.9198 2.72407 12.8998C3.11407 13.2898 3.61407 13.5298 4.14407 13.5998C4.2141 14.1376 4.45998 14.637 4.84342 15.0205C5.22686 15.4039 5.72634 15.6498 6.26407 15.7198C6.3341 16.2576 6.57998 16.757 6.96342 17.1405C7.34686 17.5239 7.84634 17.7698 8.38407 17.8398C8.45407 18.3798 8.69407 18.8698 9.08407 19.2598C9.55407 19.7298 10.1841 19.9898 10.8541 19.9898C11.5241 19.9898 12.1541 19.7298 12.6241 19.2598L20.8341 11.0698Z" fill="#548DFC"/>
</svg>
