<svg width="32" height="35" viewBox="0 0 32 35" fill="none" xmlns="http://www.w3.org/2000/svg">
<path fill-rule="evenodd" clip-rule="evenodd" d="M20.2567 0.828837C18.9374 0.293372 17.4996 0 16 0C10.1818 0 5.29406 4.41605 4.65155 10.2532L4.20453 14.3137C4.00892 16.0343 3.45409 17.6936 2.57664 19.1819L1.48423 21.0199C1.06552 21.7242 0.686174 22.3623 0.433491 22.9039C0.176708 23.4543 -0.0978496 24.2 0.034309 25.0455C0.164937 25.8812 0.591025 26.6409 1.23373 27.1839C1.88396 27.7333 2.65868 27.8793 3.25833 27.9402C3.84841 28.0001 4.58564 28.0001 5.39938 28H26.6006C27.4144 28.0001 28.1516 28.0001 28.7417 27.9402C29.3413 27.8793 30.116 27.7333 30.7663 27.1839C31.409 26.6409 31.8351 25.8812 31.9657 25.0455C32.0979 24.2 31.8233 23.4543 31.5665 22.9039C31.3138 22.3623 30.9345 21.7242 30.5157 21.0199L29.4234 19.1819C28.7668 18.0682 28.2908 16.8588 28.0109 15.5995C27.4895 15.6983 26.9516 15.75 26.4018 15.75C25.7362 15.75 25.088 15.6743 24.4654 15.5309C24.7854 17.4501 25.4554 19.2953 26.4438 20.9718L27.5007 22.7502C27.9749 23.5479 28.2606 24.0328 28.4297 24.3952C28.439 24.415 28.4474 24.4336 28.4552 24.4511C28.4364 24.4533 28.4162 24.4556 28.3946 24.4578C27.9998 24.4979 27.4409 24.5 26.5193 24.5H5.4807C4.55911 24.5 4.00023 24.4979 3.60541 24.4578C3.58381 24.4556 3.56362 24.4533 3.54479 24.4511C3.55256 24.4336 3.56104 24.415 3.57029 24.3952C3.73936 24.0328 4.0251 23.5479 4.49926 22.7502L5.5562 20.9718C6.68435 19.0583 7.3977 16.925 7.64919 14.7127L8.09761 10.6397C8.54502 6.57507 11.9486 3.5 16 3.5C16.8027 3.5 17.58 3.62072 18.3139 3.84593C18.7507 2.7054 19.4174 1.6804 20.2567 0.828837ZM24.6372 3.98657C23.6179 4.59606 22.9345 5.71747 22.9345 7C22.9345 7.2538 22.9613 7.50129 23.0121 7.73975C23.2209 8.13331 23.3983 8.54708 23.5408 8.97786C24.1657 9.89707 25.214 10.5 26.4018 10.5C26.7345 10.5 27.0562 10.4527 27.3607 10.3644L27.3485 10.2532C27.0845 7.85531 26.1041 5.69721 24.6372 3.98657Z" fill="white"/>
<path fill-rule="evenodd" clip-rule="evenodd" d="M20.4748 32.7704C19.3126 34.1207 17.7515 35 16 35C14.2485 35 12.6874 34.1207 11.5252 32.7704C10.3712 31.4296 9.60914 29.6391 9.26969 27.7209C9.10132 26.7695 9.72891 25.8604 10.6715 25.6905C11.614 25.5205 12.5146 26.154 12.6829 27.1055C12.9361 28.5362 13.48 29.7051 14.1426 30.4749C14.797 31.2353 15.4617 31.5 16 31.5C16.5383 31.5 17.203 31.2353 17.8574 30.4749C18.52 29.7051 19.0639 28.5362 19.3171 27.1055C19.4854 26.154 20.386 25.5205 21.3286 25.6905C22.2711 25.8604 22.8987 26.7695 22.7303 27.7209C22.3909 29.6392 21.6288 31.4296 20.4748 32.7704Z" fill="white"/>
<path fill-rule="evenodd" clip-rule="evenodd" d="M31.6027 7C31.6027 9.8995 29.2742 12.25 26.4018 12.25C23.5294 12.25 21.2009 9.8995 21.2009 7C21.2009 4.1005 23.5294 1.75 26.4018 1.75C29.2742 1.75 31.6027 4.1005 31.6027 7Z" fill="white"/>
</svg>
