<svg width="6" height="66" viewBox="0 0 6 66" fill="none" xmlns="http://www.w3.org/2000/svg">
<path d="M0.333333 3C0.333333 4.47276 1.52724 5.66667 3 5.66667C4.47276 5.66667 5.66667 4.47276 5.66667 3C5.66667 1.52724 4.47276 0.333333 3 0.333333C1.52724 0.333333 0.333333 1.52724 0.333333 3ZM0.333333 63C0.333333 64.4728 1.52724 65.6667 3 65.6667C4.47276 65.6667 5.66667 64.4728 5.66667 63C5.66667 61.5272 4.47276 60.3333 3 60.3333C1.52724 60.3333 0.333333 61.5272 0.333333 63ZM2.5 3V63H3.5V3H2.5Z" fill="#8DC63F"/>
</svg>
