<svg width="38" height="38" viewBox="0 0 38 38" fill="none" xmlns="http://www.w3.org/2000/svg">
<path d="M30.6569 34.6569L29.9497 33.9497L30.6569 34.6569ZM34 21C34 20.4477 33.5523 20 33 20C32.4477 20 32 20.4477 32 21H34ZM17 6C17.5523 6 18 5.55228 18 5C18 4.44772 17.5523 4 17 4V6ZM11 16C10.4477 16 10 16.4477 10 17C10 17.5523 10.4477 18 11 18V16ZM23 18C23.5523 18 24 17.5523 24 17C24 16.4477 23.5523 16 23 16V18ZM11 24C10.4477 24 10 24.4477 10 25C10 25.5523 10.4477 26 11 26V24ZM17 26C17.5523 26 18 25.5523 18 25C18 24.4477 17.5523 24 17 24V26ZM30 13C30 13.5523 30.4477 14 31 14C31.5523 14 32 13.5523 32 13H30ZM32 1C32 0.447715 31.5523 0 31 0C30.4477 0 30 0.447715 30 1H32ZM25 6C24.4477 6 24 6.44772 24 7C24 7.55228 24.4477 8 25 8V6ZM37 8C37.5523 8 38 7.55228 38 7C38 6.44772 37.5523 6 37 6V8ZM0 21V33H2V21H0ZM5 38H17V36H5V38ZM17 38C20.743 38 23.6508 38.0021 25.9114 37.6982C28.2008 37.3904 29.9756 36.7523 31.364 35.364L29.9497 33.9497C28.9949 34.9046 27.7126 35.438 25.6449 35.716C23.5485 35.9979 20.7995 36 17 36V38ZM32 21C32 24.7995 31.9979 27.5485 31.716 29.6449C31.438 31.7125 30.9046 32.9949 29.9497 33.9497L31.364 35.364C32.7523 33.9756 33.3904 32.2008 33.6982 29.9114C34.0021 27.6508 34 24.743 34 21H32ZM0 33C0 33.9145 -0.00212371 34.701 0.0821405 35.3278C0.170272 35.9833 0.369017 36.6117 0.878681 37.1213L2.29289 35.7071C2.21677 35.631 2.12262 35.495 2.06431 35.0613C2.00212 34.5988 2 33.9711 2 33H0ZM5 36C4.02892 36 3.40121 35.9979 2.9387 35.9357C2.50496 35.8774 2.36902 35.7832 2.29289 35.7071L0.878681 37.1213C1.38834 37.631 2.01669 37.8297 2.67221 37.9179C3.29896 38.0021 4.08546 38 5 38V36ZM2 21C2 17.2005 2.00212 14.4515 2.28398 12.3551C2.56196 10.2875 3.09545 9.00506 4.05025 8.05025L2.63604 6.63604C1.2477 8.02438 0.609612 9.79918 0.30181 12.0886C-0.00212371 14.3492 0 17.257 0 21H2ZM17 4C13.257 4 10.3492 3.99788 8.08858 4.30181C5.79918 4.60961 4.02438 5.2477 2.63604 6.63604L4.05025 8.05025C5.00506 7.09545 6.28745 6.56196 8.35507 6.28398C10.4515 6.00212 13.2005 6 17 6V4ZM11 18H23V16H11V18ZM11 26H17V24H11V26ZM32 13V7H30V13H32ZM32 7V1H30V7H32ZM25 8H31V6H25V8ZM31 8H37V6H31V8Z" fill="white"/>
</svg>
