<svg width="35" height="35" viewBox="0 0 35 35" fill="none" xmlns="http://www.w3.org/2000/svg">
<path fill-rule="evenodd" clip-rule="evenodd" d="M20.7732 1.89366C20.9173 2.17303 20.9531 2.53081 21.0246 3.24637C21.1601 4.6008 21.2278 5.27801 21.5112 5.64958C21.8708 6.12091 22.4556 6.36313 23.0431 6.28409C23.5063 6.22178 24.033 5.79081 25.0865 4.92887C25.6431 4.4735 25.9213 4.24581 26.2208 4.15015C26.6011 4.02865 27.0126 4.04917 27.3789 4.20792C27.6673 4.33289 27.9216 4.58714 28.4301 5.09563L29.9043 6.56985C30.4128 7.07835 30.6671 7.33261 30.792 7.62104C30.9508 7.98738 30.9713 8.39885 30.8498 8.77916C30.7541 9.0786 30.5264 9.35689 30.0711 9.91347C29.2091 10.967 28.7781 11.4937 28.7158 11.9569C28.6368 12.5444 28.879 13.1292 29.3503 13.4887C29.7219 13.7722 30.3991 13.8399 31.7536 13.9754C32.4692 14.0469 32.827 14.0827 33.1064 14.2268C33.4612 14.4098 33.7376 14.7153 33.8844 15.0865C34 15.3789 34 15.7384 34 16.4576V18.5426C34 19.2616 34 19.621 33.8845 19.9133C33.7377 20.2847 33.4612 20.5902 33.1062 20.7733C32.8269 20.9173 32.4692 20.9531 31.7537 21.0246C30.3997 21.16 29.7227 21.2277 29.3512 21.511C28.8796 21.8706 28.6373 22.4556 28.7165 23.0434C28.7788 23.5063 29.2097 24.0329 30.0713 25.086C30.5265 25.6424 30.7541 25.9206 30.8498 26.2199C30.9714 26.6003 30.9509 27.012 30.792 27.3784C30.667 27.6667 30.4129 27.9209 29.9046 28.4292L28.4302 29.9036C27.9217 30.4121 27.6674 30.6664 27.379 30.7914C27.0126 30.9501 26.6012 30.9706 26.2208 30.8491C25.9214 30.7535 25.6431 30.5258 25.0866 30.0704C24.0331 29.2085 23.5063 28.7775 23.0432 28.7152C22.4556 28.6361 21.8709 28.8784 21.5113 29.3497C21.2279 29.7213 21.1601 30.3986 21.0247 31.7532C20.9531 32.4691 20.9173 32.8271 20.7731 33.1065C20.5901 33.4612 20.2848 33.7376 19.9136 33.8843C19.6212 34 19.2615 34 18.5422 34H16.4576C15.7384 34 15.3789 34 15.0865 33.8844C14.7153 33.7376 14.4098 33.4612 14.2268 33.1064C14.0827 32.827 14.0469 32.4692 13.9754 31.7536C13.8399 30.3991 13.7722 29.7219 13.4887 29.3503C13.1292 28.879 12.5444 28.6368 11.9569 28.7158C11.4938 28.7781 10.967 29.2091 9.91342 30.0711C9.35683 30.5265 9.07851 30.7542 8.77906 30.8499C8.39876 30.9714 7.98731 30.9508 7.62099 30.7921C7.33254 30.6671 7.07828 30.4129 6.56975 29.9043L5.09558 28.4302C4.58707 27.9217 4.33281 27.6674 4.20783 27.379C4.0491 27.0126 4.02858 26.6012 4.15007 26.2209C4.24573 25.9214 4.47343 25.6431 4.92882 25.0865C5.79079 24.033 6.22177 23.5063 6.28408 23.0431C6.36311 22.4556 6.1209 21.8708 5.64957 21.5113C5.27801 21.2278 4.60079 21.1601 3.24636 21.0246C2.53081 20.9531 2.17303 20.9173 1.89366 20.7732C1.53882 20.5902 1.26238 20.2847 1.11558 19.9134C1 19.6211 1 19.2616 1 18.5424V16.4578C1 15.7385 1 15.3788 1.11564 15.0864C1.26243 14.7152 1.53879 14.4099 1.89351 14.2269C2.17295 14.0827 2.53082 14.0469 3.24656 13.9753C4.60135 13.8399 5.27876 13.7721 5.65039 13.4885C6.12152 13.129 6.36365 12.5444 6.28473 11.9571C6.22248 11.4938 5.79135 10.9669 4.92911 9.913C4.47352 9.35617 4.24573 9.07776 4.15007 8.77819C4.02868 8.39801 4.0492 7.98672 4.20781 7.62051C4.3328 7.33195 4.58715 7.0776 5.09585 6.5689L6.56983 5.09492C7.07835 4.5864 7.33262 4.33213 7.62107 4.20715C7.98739 4.04843 8.39884 4.02791 8.77914 4.14939C9.07859 4.24505 9.35694 4.47279 9.91362 4.92826C10.967 5.79012 11.4937 6.22105 11.9567 6.28341C12.5444 6.36255 13.1294 6.12026 13.489 5.64874C13.7723 5.27724 13.84 4.60021 13.9754 3.24615C14.0469 2.5308 14.0827 2.17312 14.2267 1.89381C14.4097 1.53885 14.7153 1.26232 15.0867 1.11552C15.379 1 15.7384 1 16.4574 1H18.5424C19.2616 1 19.6211 1 19.9134 1.11558C20.2847 1.26238 20.5902 1.53882 20.7732 1.89366ZM17.5 24.1C21.1451 24.1 24.1 21.1451 24.1 17.5C24.1 13.8549 21.1451 10.9 17.5 10.9C13.8549 10.9 10.9 13.8549 10.9 17.5C10.9 21.1451 13.8549 24.1 17.5 24.1Z" stroke="white" stroke-width="2"/>
</svg>
